<?xml version="1.0" standalone="no"?>
<!DOCTYPE svg PUBLIC "-//W3C//DTD SVG 20010904//EN"
 "http://www.w3.org/TR/2001/REC-SVG-20010904/DTD/svg10.dtd">
<svg version="1.0" xmlns="http://www.w3.org/2000/svg"
 width="500.000000pt" height="500.000000pt" viewBox="0 0 500.000000 500.000000"
 preserveAspectRatio="xMidYMid meet">

<g transform="translate(0.000000,500.000000) scale(0.100000,-0.100000)"
fill="#000000" stroke="none">
<path d="M1330 2562 l0 -1818 87 -87 87 -87 1143 0 1143 0 0 188 0 187 -81 83
-82 82 -838 0 -839 0 0 585 0 585 795 0 795 0 0 183 0 183 -87 87 -87 87 -708
0 -708 0 0 510 0 510 900 0 900 0 0 188 0 187 -83 83 -82 82 -1128 0 -1127 0
0 -1818z m2238 1726 l3 -68 -1033 0 -1034 0 -69 70 -70 70 1100 -2 1100 -3 3
-67z m-2078 -1810 l0 -1718 -65 0 -65 0 0 1782 0 1782 65 -64 65 -64 0 -1718z
m2173 1783 c15 -14 27 -28 27 -33 0 -4 -22 -8 -50 -8 l-50 0 0 52 0 51 23 -19
c12 -10 34 -30 50 -43z m77 -226 l0 -175 -900 0 -900 0 0 -605 0 -605 795 0
795 0 0 -180 0 -180 -795 0 -795 0 0 -670 0 -670 920 0 920 0 0 -180 0 -180
-1140 0 -1140 0 0 1810 0 1810 1120 0 1120 0 0 -175z m-390 -1310 l0 -65 -700
0 -700 0 0 65 0 65 700 0 700 0 0 -65z m85 -15 l49 -50 -52 0 -52 0 0 50 c0
28 1 50 3 50 1 0 25 -22 52 -50z m175 -1690 l0 -60 -830 0 -830 0 0 60 0 60
830 0 830 0 0 -60z m75 -10 l49 -50 -52 0 -52 0 0 50 c0 28 1 50 3 50 1 0 25
-22 52 -50z m-2195 -330 c0 -27 -1 -50 -3 -50 -1 0 -25 23 -52 50 l-49 50 52
0 52 0 0 -50z"/>
</g>
</svg>
